<svg xmlns="http://www.w3.org/2000/svg" width="1200" height="1200" fill="none"><rect width="1200" height="1200" fill="#1e3a5f" rx="3"/><g opacity="0.9"><path fill="#2c5282" d="M600 250c-120 0-200 40-200 80v200c0 160 80 280 200 360 120-80 200-200 200-360V330c0-40-80-80-200-80Z"/><path fill="#3b82f6" d="M600 280c-100 0-170 35-170 70v190c0 145 70 255 170 330 100-75 170-185 170-330V350c0-35-70-70-170-70Z"/><path fill="#fff" d="M560 620 480 540l28-28 52 52 112-112 28 28-140 140Z"/></g><text x="600" y="950" font-family="Arial, sans-serif" font-size="48" fill="#cbd5e1" text-anchor="middle">Electoral Integrity</text></svg>
